<svg xmlns="http://www.w3.org/2000/svg" xmlns:xlink="http://www.w3.org/1999/xlink" width="150" zoomAndPan="magnify" viewBox="0 0 112.5 74.999997" height="100" preserveAspectRatio="xMidYMid meet" version="1.0"><defs><g/><clipPath id="733befb317"><path d="M 13.1875 0.164062 L 99 0.164062 L 99 46.460938 L 13.1875 46.460938 Z M 13.1875 0.164062 " clip-rule="nonzero"/></clipPath><clipPath id="39a8f1a64e"><path d="M 35.761719 12.03125 L 76.082031 12.03125 L 76.082031 44.886719 L 35.761719 44.886719 Z M 35.761719 12.03125 " clip-rule="nonzero"/></clipPath><clipPath id="e5b1d3c0e5"><path d="M 19.328125 42.914062 L 21.945312 42.914062 L 21.945312 45.527344 L 19.328125 45.527344 Z M 19.328125 42.914062 " clip-rule="nonzero"/></clipPath><clipPath id="b2e0973321"><path d="M 20.636719 42.914062 C 19.914062 42.914062 19.328125 43.5 19.328125 44.222656 C 19.328125 44.945312 19.914062 45.527344 20.636719 45.527344 C 21.359375 45.527344 21.945312 44.945312 21.945312 44.222656 C 21.945312 43.5 21.359375 42.914062 20.636719 42.914062 Z M 20.636719 42.914062 " clip-rule="nonzero"/></clipPath><clipPath id="caa73ce265"><path d="M 90.058594 42.914062 L 92.671875 42.914062 L 92.671875 45.527344 L 90.058594 45.527344 Z M 90.058594 42.914062 " clip-rule="nonzero"/></clipPath><clipPath id="577b03ada6"><path d="M 91.367188 42.914062 C 90.644531 42.914062 90.058594 43.5 90.058594 44.222656 C 90.058594 44.945312 90.644531 45.527344 91.367188 45.527344 C 92.085938 45.527344 92.671875 44.945312 92.671875 44.222656 C 92.671875 43.5 92.085938 42.914062 91.367188 42.914062 Z M 91.367188 42.914062 " clip-rule="nonzero"/></clipPath></defs><g clip-path="url(#733befb317)"><path fill="#eaecf6" d="M 86.277344 12.703125 C 78.191406 4.617188 67.4375 0.164062 56 0.164062 C 32.402344 0.164062 13.1875 19.363281 13.1875 42.976562 C 13.1875 66.59375 32.382812 85.789062 56 85.789062 C 79.613281 85.789062 98.8125 66.59375 98.8125 42.976562 C 98.8125 31.539062 94.359375 20.785156 86.277344 12.703125 Z M 86.277344 12.703125 " fill-opacity="1" fill-rule="nonzero"/></g><path fill="#5e17eb" d="M 56.671875 30.238281 L 71.503906 30.238281 L 71.503906 38.328125 L 56.671875 38.328125 Z M 55.996094 39.679688 L 72.179688 39.679688 C 72.550781 39.679688 72.855469 39.375 72.855469 39.003906 L 72.855469 29.5625 C 72.855469 29.191406 72.550781 28.890625 72.179688 28.890625 L 55.996094 28.890625 C 55.625 28.890625 55.324219 29.191406 55.324219 29.5625 L 55.324219 39.003906 C 55.324219 39.375 55.625 39.679688 55.996094 39.679688 " fill-opacity="1" fill-rule="nonzero"/><g clip-path="url(#39a8f1a64e)"><path fill="#5e17eb" d="M 74.878906 42.882812 C 74.878906 43.347656 74.5 43.722656 74.035156 43.722656 L 54.140625 43.722656 C 53.675781 43.722656 53.300781 43.347656 53.300781 42.882812 L 53.300781 42.375 L 61.113281 42.375 L 61.589844 42.851562 C 61.714844 42.980469 61.886719 43.050781 62.066406 43.050781 L 65.4375 43.050781 C 65.617188 43.050781 65.789062 42.980469 65.914062 42.851562 L 66.390625 42.375 L 74.878906 42.375 Z M 52.625 32.261719 L 37.117188 32.261719 L 37.117188 15.742188 C 37.117188 14.4375 38.175781 13.378906 39.476562 13.378906 L 67.121094 13.378906 C 68.425781 13.378906 69.484375 14.4375 69.484375 15.742188 L 69.484375 25.835938 L 54.984375 25.835938 C 53.683594 25.835938 52.625 26.894531 52.625 28.195312 Z M 52.625 36.308594 L 39.476562 36.308594 C 38.175781 36.308594 37.117188 35.246094 37.117188 33.945312 L 37.117188 33.609375 L 52.625 33.609375 Z M 52.625 41.027344 C 52.253906 41.027344 51.949219 41.328125 51.949219 41.699219 L 51.949219 42.882812 C 51.949219 43.179688 52.011719 43.464844 52.121094 43.722656 L 47.90625 43.722656 L 47.90625 42.726562 C 49.1875 41.78125 50.160156 40.445312 50.664062 38.933594 L 51.089844 37.65625 L 52.625 37.65625 Z M 73.191406 27.183594 C 73.75 27.183594 74.203125 27.636719 74.203125 28.195312 L 74.203125 41.027344 L 66.109375 41.027344 C 65.933594 41.027344 65.761719 41.097656 65.632812 41.222656 L 65.15625 41.699219 L 62.34375 41.699219 L 61.867188 41.222656 C 61.742188 41.097656 61.570312 41.027344 61.390625 41.027344 L 53.972656 41.027344 L 53.972656 28.195312 C 53.972656 27.636719 54.425781 27.183594 54.984375 27.183594 Z M 75.550781 41.027344 L 75.550781 28.195312 C 75.550781 26.894531 74.492188 25.835938 73.191406 25.835938 L 70.832031 25.835938 L 70.832031 15.742188 C 70.832031 13.695312 69.167969 12.03125 67.121094 12.03125 L 39.476562 12.03125 C 37.429688 12.03125 35.769531 13.695312 35.769531 15.742188 L 35.769531 33.945312 C 35.769531 35.992188 37.429688 37.65625 39.476562 37.65625 L 49.667969 37.65625 L 49.382812 38.507812 C 48.933594 39.851562 48.039062 41.027344 46.855469 41.8125 C 46.667969 41.941406 46.554688 42.148438 46.554688 42.375 L 46.554688 44.398438 C 46.554688 44.769531 46.859375 45.074219 47.230469 45.074219 L 74.035156 45.074219 C 75.242188 45.074219 76.226562 44.089844 76.226562 42.882812 L 76.226562 41.699219 C 76.226562 41.328125 75.925781 41.027344 75.550781 41.027344 " fill-opacity="1" fill-rule="nonzero"/></g><path fill="#5e17eb" d="M 48.109375 25.140625 C 48.773438 22.242188 51.671875 20.421875 54.570312 21.085938 C 54.933594 21.167969 55.296875 20.941406 55.378906 20.578125 C 55.460938 20.214844 55.234375 19.855469 54.871094 19.769531 C 51.246094 18.941406 47.625 21.214844 46.796875 24.839844 C 46.570312 25.820312 46.566406 26.808594 46.78125 27.785156 C 46.851562 28.097656 47.128906 28.3125 47.4375 28.3125 C 47.488281 28.3125 47.535156 28.308594 47.582031 28.296875 C 47.949219 28.21875 48.175781 27.859375 48.097656 27.496094 C 47.925781 26.714844 47.929688 25.921875 48.109375 25.140625 " fill-opacity="1" fill-rule="nonzero"/><path fill="#5e17eb" d="M 55.171875 18.457031 C 55.535156 18.539062 55.898438 18.3125 55.980469 17.949219 C 56.0625 17.585938 55.835938 17.222656 55.472656 17.140625 C 50.398438 15.980469 45.328125 19.164062 44.164062 24.238281 C 43.851562 25.609375 43.84375 26.996094 44.144531 28.359375 C 44.214844 28.675781 44.492188 28.890625 44.800781 28.890625 C 44.851562 28.890625 44.898438 28.882812 44.945312 28.875 C 45.3125 28.792969 45.542969 28.433594 45.460938 28.070312 C 45.207031 26.902344 45.210938 25.714844 45.480469 24.539062 C 46.476562 20.191406 50.824219 17.460938 55.171875 18.457031 " fill-opacity="1" fill-rule="nonzero"/><path fill="#5e17eb" d="M 53.96875 23.714844 C 54.332031 23.796875 54.695312 23.570312 54.777344 23.207031 C 54.859375 22.84375 54.632812 22.484375 54.269531 22.398438 C 52.09375 21.902344 49.921875 23.269531 49.425781 25.441406 C 49.289062 26.027344 49.289062 26.621094 49.414062 27.207031 C 49.484375 27.523438 49.765625 27.738281 50.074219 27.738281 C 50.121094 27.738281 50.171875 27.734375 50.21875 27.722656 C 50.582031 27.644531 50.8125 27.28125 50.734375 26.917969 C 50.648438 26.53125 50.648438 26.132812 50.738281 25.742188 C 51.070312 24.292969 52.519531 23.382812 53.96875 23.714844 " fill-opacity="1" fill-rule="nonzero"/><path stroke-linecap="round" transform="matrix(0.746681, 0, 0, 0.746681, 20.63689, 43.84863)" fill="none" stroke-linejoin="miter" d="M 0.501993 0.500918 L 32.073985 0.500918 " stroke="#001786" stroke-width="1" stroke-opacity="1" stroke-miterlimit="4"/><path stroke-linecap="round" transform="matrix(0.746681, 0, 0, 0.746681, 77.422088, 43.84863)" fill="none" stroke-linejoin="miter" d="M 0.501937 0.500918 L 18.173882 0.500918 " stroke="#001786" stroke-width="1" stroke-opacity="1" stroke-miterlimit="4"/><g clip-path="url(#e5b1d3c0e5)"><g clip-path="url(#b2e0973321)"><path fill="#001786" d="M 19.328125 42.914062 L 21.945312 42.914062 L 21.945312 45.527344 L 19.328125 45.527344 Z M 19.328125 42.914062 " fill-opacity="1" fill-rule="nonzero"/></g></g><g clip-path="url(#caa73ce265)"><g clip-path="url(#577b03ada6)"><path fill="#001786" d="M 90.058594 42.914062 L 92.671875 42.914062 L 92.671875 45.527344 L 90.058594 45.527344 Z M 90.058594 42.914062 " fill-opacity="1" fill-rule="nonzero"/></g></g><g fill="#5e17eb" fill-opacity="1"><g transform="translate(-0.564949, 63.290538)"><g><path d="M 7.644531 -11.121094 C 7.644531 -12.714844 6.78125 -13.5625 5.203125 -13.5625 L 3.304688 -13.5625 C 1.710938 -13.5625 0.847656 -12.714844 0.847656 -11.121094 L 0.847656 -2.441406 C 0.847656 -0.847656 1.710938 0 3.304688 0 L 5.203125 0 C 6.78125 0 7.644531 -0.847656 7.644531 -2.441406 L 7.644531 -4.273438 C 7.644531 -4.441406 7.542969 -4.542969 7.375 -4.542969 L 5.679688 -4.542969 C 5.492188 -4.542969 5.410156 -4.441406 5.410156 -4.273438 L 5.410156 -2.917969 C 5.410156 -2.457031 5.171875 -2.238281 4.730469 -2.238281 L 3.847656 -2.238281 C 3.40625 -2.238281 3.171875 -2.457031 3.171875 -2.917969 L 3.171875 -10.648438 C 3.171875 -11.089844 3.390625 -11.324219 3.847656 -11.324219 L 4.730469 -11.324219 C 5.171875 -11.324219 5.410156 -11.089844 5.410156 -10.648438 L 5.410156 -9.289062 C 5.410156 -9.121094 5.492188 -9.019531 5.679688 -9.019531 L 7.375 -9.019531 C 7.542969 -9.019531 7.644531 -9.121094 7.644531 -9.289062 Z M 7.644531 -11.121094 "/></g></g></g><g fill="#5e17eb" fill-opacity="1"><g transform="translate(7.928496, 63.290538)"><g><path d="M 0.847656 -2.441406 C 0.847656 -0.847656 1.695312 0 3.289062 0 L 5.1875 0 C 6.78125 0 7.628906 -0.847656 7.628906 -2.441406 L 7.628906 -11.121094 C 7.628906 -12.714844 6.78125 -13.5625 5.1875 -13.5625 L 3.289062 -13.5625 C 1.695312 -13.5625 0.847656 -12.714844 0.847656 -11.121094 Z M 3.78125 -2.1875 C 3.339844 -2.1875 3.101562 -2.40625 3.101562 -2.863281 L 3.101562 -10.699219 C 3.101562 -11.140625 3.339844 -11.375 3.78125 -11.375 L 4.765625 -11.375 C 5.203125 -11.375 5.441406 -11.140625 5.441406 -10.699219 L 5.441406 -2.863281 C 5.441406 -2.40625 5.203125 -2.1875 4.765625 -2.1875 Z M 3.78125 -2.1875 "/></g></g></g><g fill="#5e17eb" fill-opacity="1"><g transform="translate(16.404988, 63.290538)"><g><path d="M 7.933594 -13.5625 C 7.730469 -13.5625 7.613281 -13.460938 7.5625 -13.257812 L 5.679688 -4.816406 L 3.796875 -13.257812 C 3.746094 -13.460938 3.628906 -13.5625 3.425781 -13.5625 L 1.1875 -13.5625 C 0.964844 -13.5625 0.847656 -13.445312 0.847656 -13.222656 L 0.847656 -0.339844 C 0.847656 -0.117188 0.964844 0 1.1875 0 L 2.746094 0 C 2.96875 0 3.085938 -0.117188 3.085938 -0.339844 L 3.085938 -7.96875 L 3.203125 -7.96875 L 4.882812 -0.304688 C 4.933594 -0.101562 5.050781 0 5.253906 0 L 6.085938 0 C 6.289062 0 6.410156 -0.101562 6.460938 -0.304688 L 8.136719 -7.96875 L 8.257812 -7.96875 L 8.257812 -0.339844 C 8.257812 -0.117188 8.375 0 8.59375 0 L 10.171875 0 C 10.394531 0 10.511719 -0.117188 10.511719 -0.339844 L 10.511719 -13.222656 C 10.511719 -13.445312 10.394531 -13.5625 10.171875 -13.5625 Z M 7.933594 -13.5625 "/></g></g></g><g fill="#5e17eb" fill-opacity="1"><g transform="translate(27.763484, 63.290538)"><g><path d="M 0.847656 -0.269531 C 0.847656 -0.101562 0.949219 0 1.117188 0 L 2.882812 0 C 3.070312 0 3.152344 -0.101562 3.152344 -0.269531 L 3.152344 -4.542969 L 5.1875 -4.542969 C 6.78125 -4.542969 7.628906 -5.410156 7.628906 -6.984375 L 7.628906 -11.121094 C 7.628906 -12.714844 6.78125 -13.5625 5.1875 -13.5625 L 1.117188 -13.5625 C 0.949219 -13.5625 0.847656 -13.460938 0.847656 -13.292969 Z M 3.152344 -6.78125 L 3.152344 -11.324219 L 4.644531 -11.324219 C 5.101562 -11.324219 5.324219 -11.089844 5.324219 -10.648438 L 5.324219 -7.460938 C 5.324219 -7.035156 5.101562 -6.78125 4.644531 -6.78125 Z M 3.152344 -6.78125 "/></g></g></g><g fill="#5e17eb" fill-opacity="1"><g transform="translate(36.239976, 63.290538)"><g><path d="M 5.730469 -13.5625 C 5.542969 -13.5625 5.390625 -13.410156 5.390625 -13.222656 L 5.390625 -2.917969 C 5.390625 -2.457031 5.152344 -2.238281 4.714844 -2.238281 L 3.832031 -2.238281 C 3.390625 -2.238281 3.152344 -2.457031 3.152344 -2.917969 L 3.152344 -13.222656 C 3.152344 -13.410156 3 -13.5625 2.8125 -13.5625 L 1.1875 -13.5625 C 1 -13.5625 0.847656 -13.410156 0.847656 -13.222656 L 0.847656 -2.441406 C 0.847656 -0.847656 1.695312 0 3.289062 0 L 5.1875 0 C 6.78125 0 7.628906 -0.847656 7.628906 -2.441406 L 7.628906 -13.222656 C 7.628906 -13.410156 7.476562 -13.5625 7.289062 -13.5625 Z M 5.730469 -13.5625 "/></g></g></g><g fill="#5e17eb" fill-opacity="1"><g transform="translate(44.716468, 63.290538)"><g><path d="M 0.78125 -13.5625 C 0.609375 -13.5625 0.507812 -13.460938 0.507812 -13.292969 L 0.507812 -11.597656 C 0.507812 -11.425781 0.609375 -11.324219 0.78125 -11.324219 L 2.746094 -11.324219 L 2.746094 -0.269531 C 2.746094 -0.0859375 2.847656 0 3.019531 0 L 4.78125 0 C 4.96875 0 5.050781 -0.0859375 5.050781 -0.269531 L 5.050781 -11.324219 L 7.019531 -11.324219 C 7.207031 -11.324219 7.289062 -11.425781 7.289062 -11.597656 L 7.289062 -13.292969 C 7.289062 -13.460938 7.207031 -13.5625 7.019531 -13.5625 Z M 0.78125 -13.5625 "/></g></g></g><g fill="#5e17eb" fill-opacity="1"><g transform="translate(52.514839, 63.290538)"><g><path d="M 7.613281 -13.292969 C 7.613281 -13.460938 7.542969 -13.5625 7.339844 -13.5625 L 1.101562 -13.5625 C 0.949219 -13.5625 0.847656 -13.460938 0.847656 -13.292969 L 0.847656 -0.269531 C 0.847656 -0.101562 0.949219 0 1.101562 0 L 7.339844 0 C 7.542969 0 7.613281 -0.101562 7.613281 -0.269531 L 7.613281 -1.964844 C 7.613281 -2.152344 7.542969 -2.238281 7.339844 -2.238281 L 3.101562 -2.238281 L 3.101562 -5.664062 L 6.339844 -5.664062 C 6.511719 -5.664062 6.613281 -5.765625 6.613281 -5.949219 L 6.613281 -7.628906 C 6.613281 -7.816406 6.511719 -7.917969 6.339844 -7.917969 L 3.101562 -7.917969 L 3.101562 -11.308594 L 7.339844 -11.308594 C 7.542969 -11.308594 7.613281 -11.425781 7.613281 -11.597656 Z M 7.613281 -13.292969 "/></g></g></g><g fill="#5e17eb" fill-opacity="1"><g transform="translate(60.974378, 63.290538)"><g><path d="M 7.816406 -11.121094 C 7.816406 -12.714844 6.96875 -13.5625 5.375 -13.5625 L 1.117188 -13.5625 C 0.949219 -13.5625 0.847656 -13.460938 0.847656 -13.292969 L 0.847656 -0.269531 C 0.847656 -0.101562 0.949219 0 1.117188 0 L 2.882812 0 C 3.050781 0 3.152344 -0.101562 3.152344 -0.269531 L 3.152344 -4.542969 L 4.324219 -4.542969 L 5.460938 -0.238281 C 5.492188 -0.0859375 5.578125 0 5.746094 0 L 7.511719 0 C 7.695312 0 7.796875 -0.101562 7.746094 -0.304688 L 6.578125 -4.746094 C 7.390625 -5.101562 7.816406 -5.847656 7.816406 -6.984375 Z M 3.152344 -6.78125 L 3.152344 -11.324219 L 4.832031 -11.324219 C 5.273438 -11.324219 5.511719 -11.089844 5.511719 -10.648438 L 5.511719 -7.460938 C 5.511719 -7.019531 5.273438 -6.78125 4.832031 -6.78125 Z M 3.152344 -6.78125 "/></g></g></g><g fill="#5e17eb" fill-opacity="1"><g transform="translate(69.637352, 63.290538)"><g/></g></g><g fill="#5e17eb" fill-opacity="1"><g transform="translate(73.875598, 63.290538)"><g><path d="M 0.78125 -13.5625 C 0.609375 -13.5625 0.507812 -13.460938 0.507812 -13.292969 L 0.507812 -11.597656 C 0.507812 -11.425781 0.609375 -11.324219 0.78125 -11.324219 L 2.746094 -11.324219 L 2.746094 -0.269531 C 2.746094 -0.0859375 2.847656 0 3.019531 0 L 4.78125 0 C 4.96875 0 5.050781 -0.0859375 5.050781 -0.269531 L 5.050781 -11.324219 L 7.019531 -11.324219 C 7.207031 -11.324219 7.289062 -11.425781 7.289062 -11.597656 L 7.289062 -13.292969 C 7.289062 -13.460938 7.207031 -13.5625 7.019531 -13.5625 Z M 0.78125 -13.5625 "/></g></g></g><g fill="#5e17eb" fill-opacity="1"><g transform="translate(81.673969, 63.290538)"><g><path d="M 0.847656 -2.441406 C 0.847656 -0.847656 1.695312 0 3.289062 0 L 5.1875 0 C 6.78125 0 7.628906 -0.847656 7.628906 -2.441406 L 7.628906 -11.121094 C 7.628906 -12.714844 6.78125 -13.5625 5.1875 -13.5625 L 3.289062 -13.5625 C 1.695312 -13.5625 0.847656 -12.714844 0.847656 -11.121094 Z M 3.78125 -2.1875 C 3.339844 -2.1875 3.101562 -2.40625 3.101562 -2.863281 L 3.101562 -10.699219 C 3.101562 -11.140625 3.339844 -11.375 3.78125 -11.375 L 4.765625 -11.375 C 5.203125 -11.375 5.441406 -11.140625 5.441406 -10.699219 L 5.441406 -2.863281 C 5.441406 -2.40625 5.203125 -2.1875 4.765625 -2.1875 Z M 3.78125 -2.1875 "/></g></g></g><g fill="#5e17eb" fill-opacity="1"><g transform="translate(90.150461, 63.290538)"><g><path d="M 0.847656 -0.269531 C 0.847656 -0.101562 0.949219 0 1.117188 0 L 2.882812 0 C 3.070312 0 3.152344 -0.101562 3.152344 -0.269531 L 3.152344 -4.542969 L 5.1875 -4.542969 C 6.78125 -4.542969 7.628906 -5.410156 7.628906 -6.984375 L 7.628906 -11.121094 C 7.628906 -12.714844 6.78125 -13.5625 5.1875 -13.5625 L 1.117188 -13.5625 C 0.949219 -13.5625 0.847656 -13.460938 0.847656 -13.292969 Z M 3.152344 -6.78125 L 3.152344 -11.324219 L 4.644531 -11.324219 C 5.101562 -11.324219 5.324219 -11.089844 5.324219 -10.648438 L 5.324219 -7.460938 C 5.324219 -7.035156 5.101562 -6.78125 4.644531 -6.78125 Z M 3.152344 -6.78125 "/></g></g></g><g fill="#5e17eb" fill-opacity="1"><g transform="translate(98.626954, 63.290538)"><g><path d="M 1.117188 -13.5625 C 0.933594 -13.5625 0.847656 -13.460938 0.847656 -13.292969 L 0.847656 -0.269531 C 0.847656 -0.101562 0.933594 0 1.117188 0 L 2.882812 0 C 3.050781 0 3.152344 -0.101562 3.152344 -0.269531 L 3.152344 -13.292969 C 3.152344 -13.460938 3.050781 -13.5625 2.882812 -13.5625 Z M 1.117188 -13.5625 "/></g></g></g><g fill="#5e17eb" fill-opacity="1"><g transform="translate(102.627859, 63.290538)"><g><path d="M 9.019531 0 C 9.222656 0 9.289062 -0.101562 9.257812 -0.289062 L 6.441406 -13.324219 C 6.410156 -13.496094 6.308594 -13.5625 6.152344 -13.5625 L 3.796875 -13.5625 C 3.644531 -13.5625 3.542969 -13.496094 3.507812 -13.324219 L 0.695312 -0.289062 C 0.644531 -0.101562 0.730469 0 0.914062 0 L 2.730469 0 C 2.882812 0 2.96875 -0.0859375 3 -0.238281 L 3.457031 -2.710938 L 6.476562 -2.710938 L 6.949219 -0.238281 C 6.984375 -0.0859375 7.070312 0 7.222656 0 Z M 6.050781 -4.679688 L 3.882812 -4.679688 L 4.96875 -10.597656 Z M 6.050781 -4.679688 "/></g></g></g><g fill="#5e17eb" fill-opacity="1"><g transform="translate(33.635347, 72.423949)"><g><path d="M 2.9375 0.078125 C 2.414062 0.078125 1.957031 -0.03125 1.5625 -0.25 C 1.175781 -0.46875 0.875 -0.773438 0.65625 -1.171875 C 0.4375 -1.566406 0.328125 -2.03125 0.328125 -2.5625 C 0.328125 -3.09375 0.4375 -3.554688 0.65625 -3.953125 C 0.875 -4.347656 1.175781 -4.65625 1.5625 -4.875 C 1.957031 -5.09375 2.414062 -5.203125 2.9375 -5.203125 C 3.457031 -5.203125 3.910156 -5.09375 4.296875 -4.875 C 4.679688 -4.65625 4.984375 -4.347656 5.203125 -3.953125 C 5.421875 -3.554688 5.53125 -3.09375 5.53125 -2.5625 C 5.53125 -2.03125 5.421875 -1.566406 5.203125 -1.171875 C 4.984375 -0.773438 4.679688 -0.46875 4.296875 -0.25 C 3.910156 -0.03125 3.457031 0.078125 2.9375 0.078125 Z M 2.9375 -1.03125 C 3.3125 -1.03125 3.609375 -1.164062 3.828125 -1.4375 C 4.046875 -1.707031 4.15625 -2.082031 4.15625 -2.5625 C 4.15625 -3.039062 4.046875 -3.410156 3.828125 -3.671875 C 3.617188 -3.941406 3.320312 -4.078125 2.9375 -4.078125 C 2.550781 -4.078125 2.25 -3.941406 2.03125 -3.671875 C 1.820312 -3.410156 1.71875 -3.039062 1.71875 -2.5625 C 1.71875 -2.082031 1.820312 -1.707031 2.03125 -1.4375 C 2.25 -1.164062 2.550781 -1.03125 2.9375 -1.03125 Z M 2.9375 -1.03125 "/></g></g></g><g fill="#5e17eb" fill-opacity="1"><g transform="translate(39.496942, 72.423949)"><g><path d="M 1.015625 0.0625 C 0.804688 0.0625 0.644531 0.0078125 0.53125 -0.09375 C 0.425781 -0.207031 0.375 -0.375 0.375 -0.59375 L 0.375 -3 C 0.375 -3.425781 0.585938 -3.640625 1.015625 -3.640625 C 1.390625 -3.640625 1.597656 -3.453125 1.640625 -3.078125 C 1.753906 -3.265625 1.910156 -3.40625 2.109375 -3.5 C 2.316406 -3.601562 2.546875 -3.65625 2.796875 -3.65625 C 3.210938 -3.65625 3.523438 -3.53125 3.734375 -3.28125 C 3.941406 -3.03125 4.046875 -2.640625 4.046875 -2.109375 L 4.046875 -0.59375 C 4.046875 -0.375 3.988281 -0.207031 3.875 -0.09375 C 3.769531 0.0078125 3.613281 0.0625 3.40625 0.0625 C 3.195312 0.0625 3.035156 0.0078125 2.921875 -0.09375 C 2.804688 -0.207031 2.75 -0.375 2.75 -0.59375 L 2.75 -2.0625 C 2.75 -2.28125 2.710938 -2.4375 2.640625 -2.53125 C 2.566406 -2.625 2.457031 -2.671875 2.3125 -2.671875 C 2.113281 -2.671875 1.957031 -2.609375 1.84375 -2.484375 C 1.726562 -2.359375 1.671875 -2.191406 1.671875 -1.984375 L 1.671875 -0.59375 C 1.671875 -0.15625 1.453125 0.0625 1.015625 0.0625 Z M 1.015625 0.0625 "/></g></g></g><g fill="#5e17eb" fill-opacity="1"><g transform="translate(43.898586, 72.423949)"><g><path d="M 1.734375 0.078125 C 1.265625 0.078125 0.921875 -0.046875 0.703125 -0.296875 C 0.484375 -0.546875 0.375 -0.921875 0.375 -1.421875 L 0.375 -4.53125 C 0.375 -4.96875 0.585938 -5.1875 1.015625 -5.1875 C 1.222656 -5.1875 1.382812 -5.128906 1.5 -5.015625 C 1.613281 -4.910156 1.671875 -4.75 1.671875 -4.53125 L 1.671875 -1.46875 C 1.671875 -1.289062 1.703125 -1.160156 1.765625 -1.078125 C 1.835938 -0.992188 1.929688 -0.953125 2.046875 -0.953125 C 2.078125 -0.953125 2.109375 -0.953125 2.140625 -0.953125 C 2.179688 -0.960938 2.226562 -0.972656 2.28125 -0.984375 C 2.363281 -0.984375 2.421875 -0.953125 2.453125 -0.890625 C 2.492188 -0.828125 2.515625 -0.695312 2.515625 -0.5 C 2.515625 -0.332031 2.476562 -0.207031 2.40625 -0.125 C 2.34375 -0.0390625 2.242188 0.015625 2.109375 0.046875 C 2.066406 0.0546875 2.007812 0.0625 1.9375 0.0625 C 1.863281 0.0703125 1.796875 0.078125 1.734375 0.078125 Z M 1.734375 0.078125 "/></g></g></g><g fill="#5e17eb" fill-opacity="1"><g transform="translate(46.426264, 72.423949)"><g><path d="M 1.015625 -4.15625 C 0.785156 -4.15625 0.609375 -4.207031 0.484375 -4.3125 C 0.367188 -4.414062 0.3125 -4.570312 0.3125 -4.78125 C 0.3125 -4.976562 0.367188 -5.128906 0.484375 -5.234375 C 0.609375 -5.335938 0.785156 -5.390625 1.015625 -5.390625 C 1.492188 -5.390625 1.734375 -5.1875 1.734375 -4.78125 C 1.734375 -4.570312 1.671875 -4.414062 1.546875 -4.3125 C 1.421875 -4.207031 1.242188 -4.15625 1.015625 -4.15625 Z M 1.015625 0.0625 C 0.804688 0.0625 0.644531 0.00390625 0.53125 -0.109375 C 0.425781 -0.234375 0.375 -0.410156 0.375 -0.640625 L 0.375 -2.9375 C 0.375 -3.164062 0.425781 -3.335938 0.53125 -3.453125 C 0.644531 -3.578125 0.804688 -3.640625 1.015625 -3.640625 C 1.222656 -3.640625 1.382812 -3.578125 1.5 -3.453125 C 1.613281 -3.335938 1.671875 -3.164062 1.671875 -2.9375 L 1.671875 -0.640625 C 1.671875 -0.410156 1.613281 -0.234375 1.5 -0.109375 C 1.394531 0.00390625 1.234375 0.0625 1.015625 0.0625 Z M 1.015625 0.0625 "/></g></g></g><g fill="#5e17eb" fill-opacity="1"><g transform="translate(48.467289, 72.423949)"><g><path d="M 1.015625 0.0625 C 0.804688 0.0625 0.644531 0.0078125 0.53125 -0.09375 C 0.425781 -0.207031 0.375 -0.375 0.375 -0.59375 L 0.375 -3 C 0.375 -3.425781 0.585938 -3.640625 1.015625 -3.640625 C 1.390625 -3.640625 1.597656 -3.453125 1.640625 -3.078125 C 1.753906 -3.265625 1.910156 -3.40625 2.109375 -3.5 C 2.316406 -3.601562 2.546875 -3.65625 2.796875 -3.65625 C 3.210938 -3.65625 3.523438 -3.53125 3.734375 -3.28125 C 3.941406 -3.03125 4.046875 -2.640625 4.046875 -2.109375 L 4.046875 -0.59375 C 4.046875 -0.375 3.988281 -0.207031 3.875 -0.09375 C 3.769531 0.0078125 3.613281 0.0625 3.40625 0.0625 C 3.195312 0.0625 3.035156 0.0078125 2.921875 -0.09375 C 2.804688 -0.207031 2.75 -0.375 2.75 -0.59375 L 2.75 -2.0625 C 2.75 -2.28125 2.710938 -2.4375 2.640625 -2.53125 C 2.566406 -2.625 2.457031 -2.671875 2.3125 -2.671875 C 2.113281 -2.671875 1.957031 -2.609375 1.84375 -2.484375 C 1.726562 -2.359375 1.671875 -2.191406 1.671875 -1.984375 L 1.671875 -0.59375 C 1.671875 -0.15625 1.453125 0.0625 1.015625 0.0625 Z M 1.015625 0.0625 "/></g></g></g><g fill="#5e17eb" fill-opacity="1"><g transform="translate(52.868933, 72.423949)"><g><path d="M 2.328125 0.078125 C 1.890625 0.078125 1.507812 0.00390625 1.1875 -0.140625 C 0.875 -0.296875 0.628906 -0.515625 0.453125 -0.796875 C 0.285156 -1.078125 0.203125 -1.410156 0.203125 -1.796875 C 0.203125 -2.160156 0.285156 -2.484375 0.453125 -2.765625 C 0.617188 -3.046875 0.84375 -3.265625 1.125 -3.421875 C 1.40625 -3.578125 1.726562 -3.65625 2.09375 -3.65625 C 2.445312 -3.65625 2.753906 -3.578125 3.015625 -3.421875 C 3.285156 -3.273438 3.488281 -3.0625 3.625 -2.78125 C 3.769531 -2.507812 3.84375 -2.1875 3.84375 -1.8125 C 3.84375 -1.625 3.734375 -1.53125 3.515625 -1.53125 L 1.453125 -1.53125 C 1.492188 -1.289062 1.585938 -1.117188 1.734375 -1.015625 C 1.890625 -0.921875 2.097656 -0.875 2.359375 -0.875 C 2.460938 -0.875 2.582031 -0.882812 2.71875 -0.90625 C 2.863281 -0.925781 3 -0.96875 3.125 -1.03125 C 3.28125 -1.082031 3.410156 -1.078125 3.515625 -1.015625 C 3.617188 -0.960938 3.6875 -0.878906 3.71875 -0.765625 C 3.757812 -0.660156 3.753906 -0.546875 3.703125 -0.421875 C 3.660156 -0.304688 3.570312 -0.21875 3.4375 -0.15625 C 3.269531 -0.0703125 3.085938 -0.015625 2.890625 0.015625 C 2.703125 0.0546875 2.515625 0.078125 2.328125 0.078125 Z M 2.15625 -2.8125 C 1.957031 -2.8125 1.796875 -2.753906 1.671875 -2.640625 C 1.546875 -2.523438 1.46875 -2.359375 1.4375 -2.140625 L 2.796875 -2.140625 C 2.773438 -2.367188 2.707031 -2.535156 2.59375 -2.640625 C 2.488281 -2.753906 2.34375 -2.8125 2.15625 -2.8125 Z M 2.15625 -2.8125 "/></g></g></g><g fill="#5e17eb" fill-opacity="1"><g transform="translate(56.90014, 72.423949)"><g/></g></g><g fill="#5e17eb" fill-opacity="1"><g transform="translate(58.977484, 72.423949)"><g><path d="M 2.375 0.078125 C 2.070312 0.078125 1.765625 0.046875 1.453125 -0.015625 C 1.140625 -0.078125 0.875 -0.160156 0.65625 -0.265625 C 0.519531 -0.328125 0.425781 -0.410156 0.375 -0.515625 C 0.320312 -0.628906 0.300781 -0.742188 0.3125 -0.859375 C 0.332031 -0.972656 0.375 -1.070312 0.4375 -1.15625 C 0.507812 -1.25 0.597656 -1.3125 0.703125 -1.34375 C 0.816406 -1.375 0.945312 -1.359375 1.09375 -1.296875 C 1.269531 -1.203125 1.472656 -1.128906 1.703125 -1.078125 C 1.941406 -1.035156 2.164062 -1.015625 2.375 -1.015625 C 2.6875 -1.015625 2.90625 -1.054688 3.03125 -1.140625 C 3.164062 -1.222656 3.234375 -1.328125 3.234375 -1.453125 C 3.234375 -1.566406 3.1875 -1.65625 3.09375 -1.71875 C 3.007812 -1.789062 2.851562 -1.851562 2.625 -1.90625 L 1.765625 -2.078125 C 0.847656 -2.285156 0.390625 -2.769531 0.390625 -3.53125 C 0.390625 -3.863281 0.476562 -4.15625 0.65625 -4.40625 C 0.84375 -4.65625 1.097656 -4.847656 1.421875 -4.984375 C 1.742188 -5.128906 2.125 -5.203125 2.5625 -5.203125 C 2.8125 -5.203125 3.066406 -5.171875 3.328125 -5.109375 C 3.585938 -5.054688 3.8125 -4.976562 4 -4.875 C 4.144531 -4.789062 4.234375 -4.679688 4.265625 -4.546875 C 4.304688 -4.421875 4.300781 -4.289062 4.25 -4.15625 C 4.207031 -4.03125 4.125 -3.9375 4 -3.875 C 3.875 -3.820312 3.71875 -3.835938 3.53125 -3.921875 C 3.382812 -3.984375 3.222656 -4.03125 3.046875 -4.0625 C 2.878906 -4.09375 2.710938 -4.109375 2.546875 -4.109375 C 2.273438 -4.109375 2.066406 -4.0625 1.921875 -3.96875 C 1.773438 -3.875 1.703125 -3.75 1.703125 -3.59375 C 1.703125 -3.488281 1.742188 -3.398438 1.828125 -3.328125 C 1.921875 -3.265625 2.078125 -3.207031 2.296875 -3.15625 L 3.140625 -2.984375 C 4.078125 -2.785156 4.546875 -2.3125 4.546875 -1.5625 C 4.546875 -1.226562 4.453125 -0.9375 4.265625 -0.6875 C 4.085938 -0.445312 3.835938 -0.257812 3.515625 -0.125 C 3.191406 0.0078125 2.8125 0.078125 2.375 0.078125 Z M 2.375 0.078125 "/></g></g></g><g fill="#5e17eb" fill-opacity="1"><g transform="translate(63.705981, 72.423949)"><g><path d="M 2.25 0.078125 C 1.707031 0.078125 1.304688 -0.046875 1.046875 -0.296875 C 0.785156 -0.546875 0.65625 -0.925781 0.65625 -1.4375 L 0.65625 -2.625 L 0.40625 -2.625 C 0.0820312 -2.625 -0.078125 -2.785156 -0.078125 -3.109375 C -0.078125 -3.421875 0.0820312 -3.578125 0.40625 -3.578125 L 0.65625 -3.578125 L 0.65625 -4.03125 C 0.65625 -4.238281 0.707031 -4.394531 0.8125 -4.5 C 0.925781 -4.613281 1.085938 -4.671875 1.296875 -4.671875 C 1.734375 -4.671875 1.953125 -4.457031 1.953125 -4.03125 L 1.953125 -3.578125 L 2.546875 -3.578125 C 2.867188 -3.578125 3.03125 -3.421875 3.03125 -3.109375 C 3.03125 -2.785156 2.867188 -2.625 2.546875 -2.625 L 1.953125 -2.625 L 1.953125 -1.484375 C 1.953125 -1.128906 2.128906 -0.953125 2.484375 -0.953125 C 2.546875 -0.953125 2.609375 -0.957031 2.671875 -0.96875 C 2.734375 -0.988281 2.789062 -1 2.84375 -1 C 2.925781 -1.007812 2.988281 -0.988281 3.03125 -0.9375 C 3.082031 -0.882812 3.109375 -0.769531 3.109375 -0.59375 C 3.109375 -0.445312 3.085938 -0.320312 3.046875 -0.21875 C 3.003906 -0.125 2.925781 -0.0507812 2.8125 0 C 2.738281 0.0195312 2.644531 0.0351562 2.53125 0.046875 C 2.414062 0.0664062 2.320312 0.078125 2.25 0.078125 Z M 2.25 0.078125 "/></g></g></g><g fill="#5e17eb" fill-opacity="1"><g transform="translate(66.800208, 72.423949)"><g><path d="M 2.1875 0.078125 C 1.789062 0.078125 1.441406 0.00390625 1.140625 -0.140625 C 0.847656 -0.296875 0.617188 -0.515625 0.453125 -0.796875 C 0.285156 -1.078125 0.203125 -1.40625 0.203125 -1.78125 C 0.203125 -2.175781 0.285156 -2.507812 0.453125 -2.78125 C 0.617188 -3.0625 0.847656 -3.273438 1.140625 -3.421875 C 1.441406 -3.578125 1.789062 -3.65625 2.1875 -3.65625 C 2.582031 -3.65625 2.925781 -3.578125 3.21875 -3.421875 C 3.519531 -3.273438 3.75 -3.0625 3.90625 -2.78125 C 4.070312 -2.507812 4.15625 -2.175781 4.15625 -1.78125 C 4.15625 -1.40625 4.070312 -1.078125 3.90625 -0.796875 C 3.75 -0.515625 3.519531 -0.296875 3.21875 -0.140625 C 2.925781 0.00390625 2.582031 0.078125 2.1875 0.078125 Z M 2.1875 -0.875 C 2.382812 -0.875 2.546875 -0.945312 2.671875 -1.09375 C 2.796875 -1.238281 2.859375 -1.46875 2.859375 -1.78125 C 2.859375 -2.113281 2.796875 -2.347656 2.671875 -2.484375 C 2.546875 -2.628906 2.382812 -2.703125 2.1875 -2.703125 C 1.988281 -2.703125 1.828125 -2.628906 1.703125 -2.484375 C 1.578125 -2.347656 1.515625 -2.113281 1.515625 -1.78125 C 1.515625 -1.46875 1.578125 -1.238281 1.703125 -1.09375 C 1.828125 -0.945312 1.988281 -0.875 2.1875 -0.875 Z M 2.1875 -0.875 "/></g></g></g><g fill="#5e17eb" fill-opacity="1"><g transform="translate(71.172799, 72.423949)"><g><path d="M 1.03125 0.0625 C 0.59375 0.0625 0.375 -0.15625 0.375 -0.59375 L 0.375 -3 C 0.375 -3.425781 0.585938 -3.640625 1.015625 -3.640625 C 1.210938 -3.640625 1.363281 -3.582031 1.46875 -3.46875 C 1.582031 -3.363281 1.640625 -3.207031 1.640625 -3 L 1.640625 -2.96875 C 1.722656 -3.175781 1.851562 -3.335938 2.03125 -3.453125 C 2.21875 -3.578125 2.4375 -3.644531 2.6875 -3.65625 C 2.832031 -3.65625 2.9375 -3.617188 3 -3.546875 C 3.070312 -3.472656 3.109375 -3.332031 3.109375 -3.125 C 3.109375 -2.957031 3.070312 -2.820312 3 -2.71875 C 2.9375 -2.613281 2.800781 -2.550781 2.59375 -2.53125 L 2.421875 -2.515625 C 2.171875 -2.492188 1.984375 -2.421875 1.859375 -2.296875 C 1.742188 -2.179688 1.6875 -2.007812 1.6875 -1.78125 L 1.6875 -0.59375 C 1.6875 -0.15625 1.46875 0.0625 1.03125 0.0625 Z M 1.03125 0.0625 "/></g></g></g><g fill="#5e17eb" fill-opacity="1"><g transform="translate(74.32513, 72.423949)"><g><path d="M 2.328125 0.078125 C 1.890625 0.078125 1.507812 0.00390625 1.1875 -0.140625 C 0.875 -0.296875 0.628906 -0.515625 0.453125 -0.796875 C 0.285156 -1.078125 0.203125 -1.410156 0.203125 -1.796875 C 0.203125 -2.160156 0.285156 -2.484375 0.453125 -2.765625 C 0.617188 -3.046875 0.84375 -3.265625 1.125 -3.421875 C 1.40625 -3.578125 1.726562 -3.65625 2.09375 -3.65625 C 2.445312 -3.65625 2.753906 -3.578125 3.015625 -3.421875 C 3.285156 -3.273438 3.488281 -3.0625 3.625 -2.78125 C 3.769531 -2.507812 3.84375 -2.1875 3.84375 -1.8125 C 3.84375 -1.625 3.734375 -1.53125 3.515625 -1.53125 L 1.453125 -1.53125 C 1.492188 -1.289062 1.585938 -1.117188 1.734375 -1.015625 C 1.890625 -0.921875 2.097656 -0.875 2.359375 -0.875 C 2.460938 -0.875 2.582031 -0.882812 2.71875 -0.90625 C 2.863281 -0.925781 3 -0.96875 3.125 -1.03125 C 3.28125 -1.082031 3.410156 -1.078125 3.515625 -1.015625 C 3.617188 -0.960938 3.6875 -0.878906 3.71875 -0.765625 C 3.757812 -0.660156 3.753906 -0.546875 3.703125 -0.421875 C 3.660156 -0.304688 3.570312 -0.21875 3.4375 -0.15625 C 3.269531 -0.0703125 3.085938 -0.015625 2.890625 0.015625 C 2.703125 0.0546875 2.515625 0.078125 2.328125 0.078125 Z M 2.15625 -2.8125 C 1.957031 -2.8125 1.796875 -2.753906 1.671875 -2.640625 C 1.546875 -2.523438 1.46875 -2.359375 1.4375 -2.140625 L 2.796875 -2.140625 C 2.773438 -2.367188 2.707031 -2.535156 2.59375 -2.640625 C 2.488281 -2.753906 2.34375 -2.8125 2.15625 -2.8125 Z M 2.15625 -2.8125 "/></g></g></g></svg>