<svg xmlns="http://www.w3.org/2000/svg" xmlns:xlink="http://www.w3.org/1999/xlink" width="150" zoomAndPan="magnify" viewBox="0 0 112.5 60.749998" height="81" preserveAspectRatio="xMidYMid meet" version="1.0"><defs><clipPath id="b25faf8365"><path d="M 0 0.0117188 L 112.003906 0.0117188 L 112.003906 60.492188 L 0 60.492188 Z M 0 0.0117188 " clip-rule="nonzero"/></clipPath><clipPath id="c14214c6f1"><path d="M 29.527344 15.53125 L 82.539062 15.53125 L 82.539062 58.839844 L 29.527344 58.839844 Z M 29.527344 15.53125 " clip-rule="nonzero"/></clipPath><clipPath id="7c91006c24"><path d="M 8.035156 55.925781 L 11.453125 55.925781 L 11.453125 59.347656 L 8.035156 59.347656 Z M 8.035156 55.925781 " clip-rule="nonzero"/></clipPath><clipPath id="521047a6be"><path d="M 9.742188 55.925781 C 8.800781 55.925781 8.035156 56.691406 8.035156 57.636719 C 8.035156 58.582031 8.800781 59.347656 9.742188 59.347656 C 10.6875 59.347656 11.453125 58.582031 11.453125 57.636719 C 11.453125 56.691406 10.6875 55.925781 9.742188 55.925781 Z M 9.742188 55.925781 " clip-rule="nonzero"/></clipPath><clipPath id="b8ebb040d6"><path d="M 100.550781 55.925781 L 103.96875 55.925781 L 103.96875 59.347656 L 100.550781 59.347656 Z M 100.550781 55.925781 " clip-rule="nonzero"/></clipPath><clipPath id="8382e71253"><path d="M 102.257812 55.925781 C 101.3125 55.925781 100.550781 56.691406 100.550781 57.636719 C 100.550781 58.582031 101.3125 59.347656 102.257812 59.347656 C 103.203125 59.347656 103.96875 58.582031 103.96875 57.636719 C 103.96875 56.691406 103.203125 55.925781 102.257812 55.925781 Z M 102.257812 55.925781 " clip-rule="nonzero"/></clipPath></defs><g clip-path="url(#b25faf8365)"><path fill="#eaecf6" d="M 95.605469 16.40625 C 85.03125 5.835938 70.964844 0.0117188 56 0.0117188 C 25.132812 0.0117188 0 25.121094 0 56.011719 C 0 86.902344 25.109375 112.011719 56 112.011719 C 86.890625 112.011719 112.003906 86.902344 112.003906 56.011719 C 112.003906 41.046875 106.179688 26.980469 95.605469 16.40625 Z M 95.605469 16.40625 " fill-opacity="1" fill-rule="nonzero"/></g><path fill="#5e17eb" d="M 56.878906 39.34375 L 76.28125 39.34375 L 76.28125 49.925781 L 56.878906 49.925781 Z M 56 51.691406 L 77.164062 51.691406 C 77.652344 51.691406 78.046875 51.296875 78.046875 50.808594 L 78.046875 38.460938 C 78.046875 37.972656 77.652344 37.578125 77.164062 37.578125 L 56 37.578125 C 55.511719 37.578125 55.117188 37.972656 55.117188 38.460938 L 55.117188 50.808594 C 55.117188 51.296875 55.511719 51.691406 56 51.691406 " fill-opacity="1" fill-rule="nonzero"/><g clip-path="url(#c14214c6f1)"><path fill="#5e17eb" d="M 80.691406 55.878906 C 80.691406 56.488281 80.199219 56.980469 79.589844 56.980469 L 53.574219 56.980469 C 52.964844 56.980469 52.46875 56.488281 52.46875 55.878906 L 52.46875 55.21875 L 62.6875 55.21875 L 63.3125 55.839844 C 63.476562 56.007812 63.703125 56.097656 63.933594 56.097656 L 68.34375 56.097656 C 68.578125 56.097656 68.804688 56.007812 68.96875 55.839844 L 69.59375 55.21875 L 80.691406 55.21875 Z M 51.589844 41.988281 L 31.304688 41.988281 L 31.304688 20.382812 C 31.304688 18.679688 32.6875 17.292969 34.390625 17.292969 L 70.550781 17.292969 C 72.25 17.292969 73.636719 18.679688 73.636719 20.382812 L 73.636719 33.585938 L 54.675781 33.585938 C 52.972656 33.585938 51.589844 34.96875 51.589844 36.671875 Z M 51.589844 47.28125 L 34.390625 47.28125 C 32.6875 47.28125 31.304688 45.894531 31.304688 44.195312 L 31.304688 43.753906 L 51.589844 43.753906 Z M 51.589844 53.453125 C 51.101562 53.453125 50.707031 53.847656 50.707031 54.335938 L 50.707031 55.878906 C 50.707031 56.269531 50.785156 56.640625 50.925781 56.980469 L 45.414062 56.980469 L 45.414062 55.675781 C 47.089844 54.4375 48.363281 52.695312 49.019531 50.714844 L 49.578125 49.042969 L 51.589844 49.042969 Z M 78.488281 35.347656 C 79.214844 35.347656 79.808594 35.941406 79.808594 36.671875 L 79.808594 53.453125 L 69.226562 53.453125 C 68.992188 53.453125 68.769531 53.546875 68.601562 53.710938 L 67.980469 54.335938 L 64.300781 54.335938 L 63.675781 53.710938 C 63.511719 53.546875 63.289062 53.453125 63.054688 53.453125 L 53.351562 53.453125 L 53.351562 36.671875 C 53.351562 35.941406 53.945312 35.347656 54.675781 35.347656 Z M 81.574219 53.453125 L 81.574219 36.671875 C 81.574219 34.96875 80.1875 33.585938 78.488281 33.585938 L 75.402344 33.585938 L 75.402344 20.382812 C 75.402344 17.707031 73.222656 15.53125 70.550781 15.53125 L 34.390625 15.53125 C 31.714844 15.53125 29.539062 17.707031 29.539062 20.382812 L 29.539062 44.195312 C 29.539062 46.867188 31.714844 49.042969 34.390625 49.042969 L 47.71875 49.042969 L 47.347656 50.15625 C 46.761719 51.917969 45.585938 53.453125 44.042969 54.484375 C 43.796875 54.648438 43.652344 54.921875 43.652344 55.21875 L 43.652344 57.863281 C 43.652344 58.351562 44.046875 58.746094 44.53125 58.746094 L 79.589844 58.746094 C 81.171875 58.746094 82.457031 57.460938 82.457031 55.878906 L 82.457031 54.335938 C 82.457031 53.847656 82.0625 53.453125 81.574219 53.453125 " fill-opacity="1" fill-rule="nonzero"/></g><path fill="#5e17eb" d="M 45.683594 32.675781 C 46.550781 28.886719 50.339844 26.503906 54.132812 27.371094 C 54.609375 27.480469 55.082031 27.183594 55.1875 26.710938 C 55.296875 26.234375 55 25.761719 54.527344 25.652344 C 49.785156 24.570312 45.046875 27.542969 43.964844 32.285156 C 43.671875 33.5625 43.664062 34.855469 43.945312 36.132812 C 44.035156 36.546875 44.398438 36.828125 44.804688 36.828125 C 44.867188 36.828125 44.929688 36.820312 44.996094 36.804688 C 45.46875 36.703125 45.769531 36.230469 45.667969 35.753906 C 45.445312 34.734375 45.449219 33.699219 45.683594 32.675781 " fill-opacity="1" fill-rule="nonzero"/><path fill="#5e17eb" d="M 54.917969 23.933594 C 55.394531 24.042969 55.867188 23.746094 55.976562 23.269531 C 56.085938 22.796875 55.789062 22.324219 55.3125 22.214844 C 48.675781 20.695312 42.042969 24.863281 40.523438 31.5 C 40.113281 33.289062 40.105469 35.101562 40.496094 36.886719 C 40.585938 37.296875 40.953125 37.578125 41.355469 37.578125 C 41.417969 37.578125 41.484375 37.574219 41.546875 37.558594 C 42.023438 37.453125 42.324219 36.984375 42.21875 36.507812 C 41.882812 34.980469 41.894531 33.425781 42.242188 31.890625 C 43.542969 26.203125 49.230469 22.632812 54.917969 23.933594 " fill-opacity="1" fill-rule="nonzero"/><path fill="#5e17eb" d="M 53.347656 30.8125 C 53.820312 30.917969 54.292969 30.621094 54.402344 30.148438 C 54.511719 29.671875 54.214844 29.199219 53.738281 29.09375 C 50.894531 28.441406 48.050781 30.226562 47.402344 33.070312 C 47.226562 33.835938 47.222656 34.613281 47.390625 35.378906 C 47.480469 35.792969 47.847656 36.074219 48.25 36.074219 C 48.3125 36.074219 48.378906 36.066406 48.441406 36.050781 C 48.917969 35.949219 49.21875 35.476562 49.113281 35.003906 C 49.003906 34.492188 49.003906 33.976562 49.121094 33.464844 C 49.554688 31.566406 51.453125 30.378906 53.347656 30.8125 " fill-opacity="1" fill-rule="nonzero"/><path stroke-linecap="round" transform="matrix(0.746681, 0, 0, 0.746681, 9.743856, 57.262982)" fill="none" stroke-linejoin="miter" d="M 0.499988 0.500531 L 42.105962 0.500531 " stroke="#001786" stroke-width="1" stroke-opacity="1" stroke-miterlimit="4"/><path stroke-linecap="round" transform="matrix(0.746681, 0, 0, 0.746681, 84.020264, 57.262982)" fill="none" stroke-linejoin="miter" d="M 0.501241 0.500531 L 23.927816 0.500531 " stroke="#001786" stroke-width="1" stroke-opacity="1" stroke-miterlimit="4"/><g clip-path="url(#7c91006c24)"><g clip-path="url(#521047a6be)"><path fill="#001786" d="M 8.035156 55.925781 L 11.453125 55.925781 L 11.453125 59.347656 L 8.035156 59.347656 Z M 8.035156 55.925781 " fill-opacity="1" fill-rule="nonzero"/></g></g><g clip-path="url(#b8ebb040d6)"><g clip-path="url(#8382e71253)"><path fill="#001786" d="M 100.550781 55.925781 L 103.96875 55.925781 L 103.96875 59.347656 L 100.550781 59.347656 Z M 100.550781 55.925781 " fill-opacity="1" fill-rule="nonzero"/></g></g></svg>