<svg xmlns="http://www.w3.org/2000/svg" xmlns:xlink="http://www.w3.org/1999/xlink" width="40" zoomAndPan="magnify" viewBox="0 0 30 30.000001" height="40" preserveAspectRatio="xMidYMid meet" version="1.0"><defs><clipPath id="388f78b8e9"><path d="M 0.484375 2.429688 L 29.515625 2.429688 L 29.515625 26.382812 L 0.484375 26.382812 Z M 0.484375 2.429688 " clip-rule="nonzero"/></clipPath></defs><path fill="#5e17eb" d="M 15.484375 15.484375 L 26.121094 15.484375 L 26.121094 21.289062 L 15.484375 21.289062 Z M 15 22.253906 L 26.605469 22.253906 C 26.871094 22.253906 27.085938 22.039062 27.085938 21.769531 L 27.085938 15.003906 C 27.085938 14.734375 26.871094 14.519531 26.605469 14.519531 L 15 14.519531 C 14.734375 14.519531 14.515625 14.734375 14.515625 15.003906 L 14.515625 21.769531 C 14.515625 22.039062 14.734375 22.253906 15 22.253906 " fill-opacity="1" fill-rule="nonzero"/><g clip-path="url(#388f78b8e9)"><path fill="#5e17eb" d="M 28.539062 24.550781 C 28.539062 24.882812 28.265625 25.15625 27.933594 25.15625 L 13.671875 25.15625 C 13.335938 25.15625 13.066406 24.882812 13.066406 24.550781 L 13.066406 24.1875 L 18.667969 24.1875 L 19.007812 24.53125 C 19.101562 24.621094 19.222656 24.671875 19.351562 24.671875 L 21.769531 24.671875 C 21.898438 24.671875 22.019531 24.621094 22.109375 24.53125 L 22.453125 24.1875 L 28.539062 24.1875 Z M 12.582031 16.9375 L 1.460938 16.9375 L 1.460938 5.089844 C 1.460938 4.15625 2.222656 3.398438 3.15625 3.398438 L 22.976562 3.398438 C 23.910156 3.398438 24.667969 4.15625 24.667969 5.089844 L 24.667969 12.328125 L 14.273438 12.328125 C 13.339844 12.328125 12.582031 13.085938 12.582031 14.019531 Z M 12.582031 19.835938 L 3.15625 19.835938 C 2.222656 19.835938 1.460938 19.078125 1.460938 18.144531 L 1.460938 17.902344 L 12.582031 17.902344 Z M 12.582031 23.222656 C 12.316406 23.222656 12.097656 23.4375 12.097656 23.703125 L 12.097656 24.550781 C 12.097656 24.765625 12.140625 24.96875 12.21875 25.15625 L 9.199219 25.15625 L 9.199219 24.441406 C 10.117188 23.761719 10.8125 22.804688 11.175781 21.71875 L 11.480469 20.804688 L 12.582031 20.804688 Z M 27.328125 13.296875 C 27.730469 13.296875 28.054688 13.621094 28.054688 14.019531 L 28.054688 23.222656 L 22.253906 23.222656 C 22.125 23.222656 22 23.273438 21.910156 23.363281 L 21.570312 23.703125 L 19.550781 23.703125 L 19.210938 23.363281 C 19.117188 23.273438 18.996094 23.222656 18.867188 23.222656 L 13.550781 23.222656 L 13.550781 14.019531 C 13.550781 13.621094 13.875 13.296875 14.273438 13.296875 Z M 29.019531 23.222656 L 29.019531 14.019531 C 29.019531 13.085938 28.261719 12.328125 27.328125 12.328125 L 25.636719 12.328125 L 25.636719 5.089844 C 25.636719 3.625 24.445312 2.429688 22.976562 2.429688 L 3.15625 2.429688 C 1.6875 2.429688 0.496094 3.625 0.496094 5.089844 L 0.496094 18.144531 C 0.496094 19.609375 1.6875 20.804688 3.15625 20.804688 L 10.460938 20.804688 L 10.257812 21.414062 C 9.9375 22.378906 9.292969 23.222656 8.445312 23.785156 C 8.3125 23.875 8.230469 24.027344 8.230469 24.1875 L 8.230469 25.640625 C 8.230469 25.90625 8.449219 26.121094 8.714844 26.121094 L 27.933594 26.121094 C 28.800781 26.121094 29.503906 25.417969 29.503906 24.550781 L 29.503906 23.703125 C 29.503906 23.4375 29.289062 23.222656 29.019531 23.222656 " fill-opacity="1" fill-rule="nonzero"/></g><path fill="#5e17eb" d="M 9.34375 11.832031 C 9.820312 9.753906 11.898438 8.449219 13.976562 8.921875 C 14.238281 8.984375 14.496094 8.820312 14.558594 8.558594 C 14.617188 8.300781 14.453125 8.039062 14.191406 7.980469 C 11.59375 7.386719 8.996094 9.015625 8.402344 11.617188 C 8.242188 12.316406 8.238281 13.027344 8.390625 13.726562 C 8.441406 13.953125 8.640625 14.105469 8.863281 14.105469 C 8.898438 14.105469 8.933594 14.101562 8.96875 14.09375 C 9.226562 14.039062 9.394531 13.78125 9.335938 13.519531 C 9.214844 12.960938 9.21875 12.390625 9.34375 11.832031 " fill-opacity="1" fill-rule="nonzero"/><path fill="#5e17eb" d="M 14.410156 7.039062 C 14.667969 7.097656 14.929688 6.933594 14.988281 6.675781 C 15.046875 6.414062 14.882812 6.15625 14.625 6.09375 C 10.984375 5.261719 7.347656 7.546875 6.515625 11.183594 C 6.292969 12.167969 6.289062 13.160156 6.5 14.136719 C 6.550781 14.363281 6.75 14.519531 6.972656 14.519531 C 7.007812 14.519531 7.042969 14.515625 7.078125 14.507812 C 7.339844 14.449219 7.503906 14.191406 7.445312 13.933594 C 7.261719 13.09375 7.265625 12.242188 7.460938 11.398438 C 8.171875 8.28125 11.289062 6.324219 14.410156 7.039062 " fill-opacity="1" fill-rule="nonzero"/><path fill="#5e17eb" d="M 13.546875 10.808594 C 13.808594 10.867188 14.066406 10.703125 14.125 10.445312 C 14.183594 10.183594 14.023438 9.925781 13.761719 9.867188 C 12.203125 9.507812 10.644531 10.488281 10.289062 12.046875 C 10.191406 12.46875 10.1875 12.894531 10.28125 13.3125 C 10.332031 13.539062 10.53125 13.691406 10.753906 13.691406 C 10.789062 13.691406 10.820312 13.691406 10.855469 13.683594 C 11.117188 13.625 11.28125 13.367188 11.226562 13.105469 C 11.164062 12.828125 11.167969 12.542969 11.230469 12.261719 C 11.46875 11.222656 12.507812 10.570312 13.546875 10.808594 " fill-opacity="1" fill-rule="nonzero"/></svg>